<?xml version="1.0" encoding="UTF-8"?>
<svg id="Camada_2" xmlns="http://www.w3.org/2000/svg" version="1.1" viewBox="0 0 546.6 509.4">
  <!-- Generator: Adobe Illustrator 30.3.0, SVG Export Plug-In . SVG Version: 2.1.3 Build 182)  -->
  <g id="Camada_2-2">
    <g id="uuid-0e76c7a0-f873-4eef-a3eb-38a29f8c09c9">
      <g id="l2S62Rrqgxf4hujIy21giP6">
        <path id="pOSeQUHO2" fill="#d8ff2f" d="M426.7,300.1c6.1-6.1,9.6-14.5,9.5-23.2-.3-31.3-1.1-105.8-1.2-105.8-.1,0-94.7,95.4-139,140.1-12.4,12.5-32.5,12.5-45,.1L110.3,170.8l.5,139.3c-.2,13.8-11.4,24.9-25.2,24.9H31.3c-17,0-30.7-13.8-30.6-30.8L0,66.6C.2,37.6,19,12,46.6,3.2h0c23.8-7.6,49.8-1.4,67.5,16.2l161.8,160L437.5,18.8c19.8-19.7,50.2-24.3,74.9-11.2h0c21,11.1,34.2,32.9,34.2,56.7v228.4c0,25.3-9.9,49.5-27.6,67.6l-135.2,137.6c-7.3,7.4-17.3,11.6-27.7,11.6h-121.4c-6.4,0-9.6-7.7-5.1-12.2l197-197h0Z"/>
      </g>
    </g>
  </g>
</svg>