<svg viewBox="0 0 10760 10000" xmlns="http://www.w3.org/2000/svg">
    <path d="M4537 9970 c-33 -39 -41 -79 -26 -132 10 -39 201 -232 1970 -1999 l1958 -1956 42 -89 c63 -136 78 -189 89 -304 6 -58 13 -566 16 -1130 l6 -1025 -1283 1280 c-1174 1171 -1351 1346 -1519 1500 -79 73 -116 93 -226 120 -170 44 -351 32 -473 -30 -60 -30 -301 -265 -1801 -1762 l-1105 -1102 -5 1427 -5 1427 -43 75 c-66 115 -105 163 -163 202 -63 42 -155 82 -237 103 -79 21 -432 28 -923 18 l-396 -8 -88 -44 c-117 -58 -200 -140 -254 -254 -78 -163 -72 93 -68 -2668 2 -1880 6 -2493 15 -2551 14 -84 68 -252 109 -332 110 -218 298 -421 511 -550 113 -69 210 -109 362 -149 108 -28 127 -30 300 -30 133 -1 208 4 265 16 173 35 357 110 490 200 78 53 240 212 1745 1712 690 687 1330 1324 1422 1415 l167 164 1468 -1465 c1414 -1410 1773 -1762 1865 -1829 213 -155 492 -231 798 -217 284 12 547 109 754 276 88 71 214 213 285 321 93 143 181 375 181 481 0 26 5 51 10 54 7 4 10 737 10 2166 0 1438 -3 2158 -10 2154 -7 -4 -10 84 -10 257 0 145 -5 292 -10 328 -30 185 -182 537 -330 760 -161 244 -121 201 -1724 1808 l-1201 1204 -140 69 c-146 71 -230 99 -302 99 -23 0 -45 5 -48 10 -4 7 -420 10 -1215 10 l-1208 0 -25 -30z" fill="#2EC7D7"/>
</svg>
